<svg width="24" height="24" viewBox="0 0 24 24" fill="none" xmlns="http://www.w3.org/2000/svg">
<path d="M12 20.27C11.8012 20.2698 11.6106 20.1907 11.47 20.05L4.47005 13.05C4.28248 12.8571 4.21209 12.5787 4.28538 12.3198C4.35868 12.0609 4.56453 11.8608 4.82538 11.7948C5.08624 11.7289 5.36248 11.8071 5.55005 12L12 18.45L18.45 12C18.637 11.7993 18.9186 11.7168 19.1843 11.7846C19.4501 11.8525 19.6576 12.06 19.7254 12.3257C19.7933 12.5914 19.7107 12.873 19.51 13.06L12.51 20.06C12.3729 20.1922 12.1905 20.2673 12 20.27Z" fill="black"/>
<path d="M12 20.26C11.5881 20.2546 11.2554 19.922 11.25 19.51V4.51C11.25 4.24205 11.393 3.99446 11.625 3.86048C11.8571 3.72651 12.143 3.72651 12.375 3.86048C12.6071 3.99446 12.75 4.24205 12.75 4.51V19.51C12.7447 19.922 12.412 20.2546 12 20.26Z" fill="black"/>
<path d="M12 21C11.6024 20.9996 11.2211 20.8414 10.94 20.56L3.94005 13.56C3.35463 12.9718 3.35686 12.0204 3.94505 11.435C4.53323 10.8496 5.48463 10.8518 6.07005 11.44L12 17.39L17.92 11.46C18.5055 10.8718 19.4569 10.8696 20.045 11.455C20.6332 12.0404 20.6355 12.9918 20.05 13.58L13.05 20.58C12.7682 20.8516 12.3914 21.0023 12 21Z" fill="black"/>
<path d="M12 21C11.1716 21 10.5 20.3284 10.5 19.5V4.5C10.5 3.67157 11.1716 3 12 3C12.8285 3 13.5 3.67157 13.5 4.5V19.5C13.5 20.3284 12.8285 21 12 21Z" fill="black"/>
</svg>
