<svg width="24" height="24" viewBox="0 0 24 24" fill="none" xmlns="http://www.w3.org/2000/svg">
<path fill-rule="evenodd" clip-rule="evenodd" d="M8 2H16.28C18.4891 2 20.28 3.79086 20.28 6V18.62C20.28 20.8291 18.4891 22.62 16.28 22.62H8C5.79086 22.62 4 20.8291 4 18.62V6C4 3.79086 5.79086 2 8 2ZM14.53 8.08H7.83C7.42683 8.08 7.1 8.40683 7.1 8.81C7.1 9.21317 7.42683 9.54 7.83 9.54H14.53C14.9332 9.54 15.26 9.21317 15.26 8.81C15.26 8.40683 14.9332 8.08 14.53 8.08ZM12.62 17.54H7.83C7.42683 17.54 7.1 17.2132 7.1 16.81C7.1 16.4068 7.42683 16.08 7.83 16.08H12.62C13.0232 16.08 13.35 16.4068 13.35 16.81C13.35 17.2132 13.0232 17.54 12.62 17.54ZM7.83 13.54H16.45C16.8532 13.54 17.18 13.2132 17.18 12.81C17.18 12.4068 16.8532 12.08 16.45 12.08H7.83C7.42683 12.08 7.1 12.4068 7.1 12.81C7.1 13.2132 7.42683 13.54 7.83 13.54Z" fill="black"/>
</svg>
