<svg width="32" height="32" viewBox="0 0 32 32" fill="none" xmlns="http://www.w3.org/2000/svg">
<path fill-rule="evenodd" clip-rule="evenodd" d="M24.9998 11.3998V6.2665C24.9635 4.26754 23.3325 2.66617 21.3332 2.6665H10.6665C8.66721 2.66617 7.03619 4.26754 6.99984 6.2665V6.8665C4.45896 7.5014 2.67385 9.78085 2.6665 12.3998V24.3998C2.67384 27.5559 5.23048 30.1125 8.3865 30.1198H23.6398C26.7854 30.0979 29.3259 27.5455 29.3332 24.3998V16.9332C29.3258 14.3142 27.5407 12.0347 24.9998 11.3998ZM10.6665 4.59984H21.3332C22.2536 4.59984 22.9998 5.34603 22.9998 6.2665V11.2132H18.2665C17.9646 11.2132 17.7198 10.9684 17.7198 10.6665C17.7198 8.45737 15.929 6.6665 13.7198 6.6665H8.99984V6.2665C8.99984 5.34603 9.74603 4.59984 10.6665 4.59984ZM23.6398 28.3998C25.849 28.3998 27.6398 26.609 27.6398 24.3998L27.5998 16.9332C27.5998 14.724 25.809 12.9332 23.5998 12.9332H18.2665C17.0147 12.9332 15.9998 11.9184 15.9998 10.6665C15.9999 10.0584 15.7556 9.47567 15.3219 9.04942C14.8881 8.62317 14.3012 8.38911 13.6932 8.39984H8.35984C6.1507 8.39984 4.35984 10.1907 4.35984 12.3998V24.3998C4.35984 26.609 6.1507 28.3998 8.35984 28.3998H23.6398Z" fill="black"/>
</svg>
