<svg width="21" height="20" viewBox="0 0 21 20" fill="none" xmlns="http://www.w3.org/2000/svg">
<path d="M18.4354 1.59091L20.1354 6.19091C20.4632 7.09194 20.3406 8.09535 19.8054 8.89091C19.1983 9.77594 18.208 10.3212 17.1354 10.3609C15.4616 10.4888 13.9503 9.36166 13.5954 7.72091C13.5954 7.72091 13.5354 7.72091 13.5254 7.72091C13.194 9.31207 11.7593 10.4293 10.1354 10.3609C8.51899 10.4193 7.09568 9.30435 6.76544 7.72091C6.76544 7.72091 6.70544 7.72091 6.69544 7.72091C6.50184 8.60086 5.96591 9.36754 5.20601 9.85162C4.44611 10.3357 3.52476 10.4974 2.64544 10.3009C1.86385 10.1725 1.15423 9.76797 0.645442 9.16091C-0.0142835 8.32531 -0.18173 7.20266 0.205442 6.21091L1.86544 1.59091C2.25544 0.607626 3.21802 -0.0274337 4.27544 0.000911419H16.0254C17.0829 -0.0274337 18.0454 0.607626 18.4354 1.59091Z" fill="black"/>
<path d="M17.2354 11.8909V16.9909C17.2198 17.5506 16.9823 18.0811 16.5753 18.4656C16.1683 18.8501 15.6251 19.0571 15.0654 19.0409H12.2354V15.8909C12.1816 14.8395 11.287 14.0299 10.2354 14.0809C9.71573 14.0752 9.21272 14.2643 8.82544 14.6109C8.45284 14.9321 8.23764 15.399 8.23544 15.8909V19.0409H5.40544C4.83897 19.057 4.28981 18.8446 3.88164 18.4515C3.47346 18.0584 3.24058 17.5176 3.23544 16.9509V11.8909H3.31544C4.56878 11.8933 5.77912 11.4341 6.71544 10.6009C8.67787 12.3129 11.603 12.3129 13.5654 10.6009C14.5054 11.4412 15.7247 11.9011 16.9854 11.8909H17.2354Z" fill="black"/>
</svg>
