<svg width="43" height="43" viewBox="0 0 43 43" fill="none" xmlns="http://www.w3.org/2000/svg">
<g clip-path="url(#clip0_27_350)">
<path d="M40.4094 24.5188L37.0725 12.5131C36.0945 8.99598 33.9688 5.90667 31.0334 3.73628C28.0981 1.56589 24.5214 0.438969 20.872 0.534649C17.2227 0.630329 13.71 1.94312 10.8924 4.26434C8.07477 6.58557 6.1139 9.78202 5.32148 13.3456L2.73805 24.9631C2.45269 26.2468 2.45929 27.5782 2.75736 28.859C3.05543 30.1398 3.63736 31.3373 4.46019 32.3631C5.28302 33.3889 6.32573 34.2168 7.51136 34.7857C8.69698 35.3546 9.99523 35.6499 11.3103 35.6498H13.2667C13.6698 37.6349 14.7467 39.4196 16.3151 40.7015C17.8834 41.9833 19.8467 42.6836 21.8723 42.6836C23.8979 42.6836 25.8611 41.9833 27.4295 40.7015C28.9978 39.4196 30.0748 37.6349 30.4779 35.6498H31.9496C33.3033 35.6499 34.6387 35.337 35.8515 34.7356C37.0643 34.1342 38.1216 33.2605 38.9409 32.1828C39.7601 31.1051 40.3191 29.8526 40.5741 28.5231C40.8292 27.1936 40.7734 25.8232 40.4112 24.5188H40.4094ZM21.8723 39.1623C20.7865 39.1578 19.7286 38.818 18.8433 38.1892C17.958 37.5605 17.2886 36.6736 16.9267 35.6498H26.8179C26.4559 36.6736 25.7865 37.5605 24.9013 38.1892C24.016 38.818 22.9581 39.1578 21.8723 39.1623ZM36.1435 30.0562C35.6541 30.7054 35.0201 31.2316 34.2917 31.5929C33.5634 31.9541 32.7608 32.1406 31.9478 32.1374H11.3103C10.5213 32.1372 9.7425 31.9599 9.03126 31.6185C8.32002 31.2771 7.69452 30.7804 7.20094 30.1649C6.70736 29.5495 6.3583 28.831 6.17951 28.0626C6.00073 27.2942 5.99679 26.4955 6.16799 25.7253L8.74966 14.1061C9.37199 11.307 10.9121 8.79624 13.1253 6.97299C15.3384 5.14974 18.0975 4.11862 20.9639 4.04352C23.8304 3.96843 26.6397 4.85368 28.9452 6.55856C31.2508 8.26343 32.9202 10.6901 33.6883 13.4527L37.0251 25.4584C37.2456 26.2406 37.2807 27.0634 37.1277 27.8615C36.9747 28.6596 36.6377 29.4111 36.1435 30.0562Z" fill="#0E2A47"/>
</g>
<defs>
<clipPath id="clip0_27_350">
<rect width="42.1498" height="42.1498" fill="white" transform="translate(0.797394 0.525848)"/>
</clipPath>
</defs>
</svg>
