<svg width="38" height="38" viewBox="0 0 38 38" fill="none" xmlns="http://www.w3.org/2000/svg">
<path fill-rule="evenodd" clip-rule="evenodd" d="M23.0538 22.7365H23.1488C26.2597 21.3634 28.7407 18.871 30.0997 15.754V22.6573C30.1123 27.0821 27.492 31.0904 23.4338 32.854H23.323C21.9812 33.4222 20.5367 33.7078 19.0797 33.6932C17.6713 33.697 16.2766 33.417 14.9788 32.8698L14.5672 32.6957C10.5178 31.0016 7.89154 27.0308 7.91718 22.6415V22.3565C7.94756 20.1087 8.86361 17.9637 10.4663 16.3873L10.7513 16.1182C13.2708 13.6506 15.3487 10.7694 16.8947 7.59984L19.0638 3.1665C19.0638 3.1665 21.3122 6.33317 23.4022 9.49984C25.9511 13.2818 25.1033 18.3959 21.4705 21.1532H21.2805C20.9034 21.6278 20.9443 22.3103 21.3755 22.7365C21.5559 22.8888 21.7895 22.9629 22.0247 22.9423C22.3763 22.9276 22.7236 22.8582 23.0538 22.7365ZM22.3572 30.6532H22.468V30.6373C25.6338 29.2498 27.6871 26.1296 27.7089 22.6732C26.6411 23.6129 25.42 24.3627 24.0989 24.8898L23.893 24.969C23.297 25.2011 22.6642 25.3244 22.0247 25.3332C21.158 25.3637 20.3167 25.0375 19.6972 24.4307C18.4036 23.1522 18.2808 21.1046 19.4122 19.6807C19.5503 19.508 19.71 19.3537 19.8872 19.2215H19.998C22.6679 17.2299 23.296 13.4892 21.423 10.7348C20.7422 9.7215 20.0614 8.70817 19.428 7.80567L19.0322 8.629C17.3564 12.0065 15.1184 15.0745 12.4139 17.7015L12.1289 17.9707C10.9789 19.1056 10.3195 20.646 10.2922 22.2615V22.5623C10.2493 26.0127 12.3036 29.1442 15.4855 30.479L15.8972 30.6532C17.9614 31.5296 20.293 31.5296 22.3572 30.6532Z" fill="black"/>
</svg>
