<svg width="37" height="37" viewBox="0 0 37 37" fill="none" xmlns="http://www.w3.org/2000/svg">
<path fill-rule="evenodd" clip-rule="evenodd" d="M30.1856 25.7615L30.5556 27.519C30.9062 29.0384 30.56 30.6351 29.6116 31.8728C28.6631 33.1106 27.2114 33.8602 25.6531 33.9169H11.3464C9.78807 33.8602 8.33643 33.1106 7.38796 31.8728C6.43949 30.6351 6.0933 29.0384 6.44393 27.519L6.81393 25.7615C7.23948 23.3823 9.28463 21.6339 11.701 21.5835H25.2985C27.7149 21.6339 29.76 23.3823 30.1856 25.7615ZM25.6531 31.589C26.4359 31.5799 27.1727 31.2172 27.6573 30.6023V30.6177C28.2519 29.8718 28.4835 28.8999 28.2893 27.966L27.9193 26.2085C27.7141 24.9061 26.6161 23.9308 25.2985 23.8806H11.701C10.3835 23.9308 9.28547 24.9061 9.08018 26.2085L8.71018 27.966C8.5208 28.895 8.75221 29.8602 9.34226 30.6023C9.82686 31.2172 10.5636 31.5799 11.3464 31.589H25.6531Z" fill="black"/>
<path fill-rule="evenodd" clip-rule="evenodd" d="M19.2706 18.5002H17.7289C14.3231 18.5002 11.5622 15.7393 11.5622 12.3335V8.26352C11.5581 6.88844 12.1026 5.5685 13.0749 4.59617C14.0472 3.62384 15.3672 3.07941 16.7422 3.08352H20.2572C21.6323 3.07941 22.9523 3.62384 23.9246 4.59617C24.8969 5.5685 25.4413 6.88844 25.4372 8.26352V12.3335C25.4372 15.7393 22.6763 18.5002 19.2706 18.5002ZM16.7422 5.39602C15.1586 5.39602 13.8747 6.67984 13.8747 8.26352V12.3335C13.8747 14.4621 15.6003 16.1877 17.7289 16.1877H19.2706C21.3992 16.1877 23.1247 14.4621 23.1247 12.3335V8.26352C23.1247 7.50301 22.8226 6.77365 22.2849 6.23589C21.7471 5.69813 21.0177 5.39602 20.2572 5.39602H16.7422Z" fill="black"/>
</svg>
